# xmcd
#
# Track frame offsets:
# 150
# 24957
# 42907
# 63547
# 83946
# 101615
# 118705
# 139662
# 161841
# 179552
# 197388
#
# Disc length: 2821 seconds
#
# Revision: 0
# Processed by: cddbd v1.4PL0 Copyright (c) Steve Scherf et al.
# Submitted via: Audion 3.0.2 (http://www.panic.com/audion/)
#
DISCID=920b030b
DTITLE=Dido - No Angel
DYEAR=1900
DGENRE=
TTITLE0=Here With Me
TTITLE1=Hunter
TTITLE2=Don't Think of Me
TTITLE3=My Lover's Gone
TTITLE4=All You Want
TTITLE5=Thank You
TTITLE6=Honestly OK
TTITLE7=Slide
TTITLE8=Isobel
TTITLE9=I'm No Angel
TTITLE10=My Life
EXTD=
EXTT0=
EXTT1=
EXTT2=
EXTT3=
EXTT4=
EXTT5=
EXTT6=
EXTT7=
EXTT8=
EXTT9=
EXTT10=
PLAYORDER=
